<?xml version="1.0" encoding="utf-8"?>
<!-- Svg Vector Icons : http://www.onlinewebfonts.com/icon -->
<!DOCTYPE svg PUBLIC "-//W3C//DTD SVG 1.1//EN" "http://www.w3.org/Graphics/SVG/1.1/DTD/svg11.dtd">
<svg version="1.1" xmlns="http://www.w3.org/2000/svg" xmlns:xlink="http://www.w3.org/1999/xlink" x="0px" y="0px" viewBox="0 0 1000 1000" enable-background="new 0 0 1000 1000" xml:space="preserve">
<metadata> Svg Vector Icons : http://www.onlinewebfonts.com/icon </metadata>
<g><g transform="translate(0.000000,511.000000) scale(0.100000,-0.100000)"><path d="M4581.9,4994.7C3421.1,4847,2389.6,4103.9,1893.4,3056.2c-235.4-500.8-320.8-883.9-323.1-1453.9c0-350.8,9.2-440.8,62.3-692.3C1893.4-315.4,2749.6-1903,4131.9-3728.5c360-475.4,835.4-1061.5,863.1-1061.5c25.4,0,500.8,583.9,844.6,1036.2c1620,2130,2526.9,3955.4,2586.9,5215.4c34.6,738.5-216.9,1550.8-666.9,2160c-163.8,221.5-546.9,595.4-768.4,752.3c-390,276.9-858.5,480-1336.2,576.9C5387.3,5006.2,4849.6,5027,4581.9,4994.7z M5373.4,2756.2c214.6-73.9,350.8-159.2,510-325.4c170.8-177.7,270-366.9,323.1-611.5c41.5-200.8,41.5-279.2,0-482.3c-103.8-491.5-477.7-865.4-971.6-969.2c-200.8-41.5-279.2-41.5-480,0c-242.3,50.8-424.6,147.7-611.5,323.1c-512.3,484.6-516.9,1271.6-9.2,1774.6C4450.3,2779.3,4960.3,2899.3,5373.4,2756.2z"/></g></g>
</svg>